<svg width="204" height="160" viewBox="0 0 204 160" fill="none" xmlns="http://www.w3.org/2000/svg">
<mask id="mask0_121_977" style="mask-type:alpha" maskUnits="userSpaceOnUse" x="0" y="0" width="184" height="160">
<rect y="0.212891" width="184" height="159" rx="12" fill="white"/>
</mask>
<g mask="url(#mask0_121_977)">
<g opacity="0.03">
<path d="M124.363 60.9186C124.213 69.0669 127.338 76.9343 133.038 82.7586C138.267 88.3281 141.095 95.7317 140.909 103.37V106.396C140.909 112.923 146.2 118.214 152.727 118.214H157.454C163.982 118.214 169.273 112.923 169.273 106.396V102.519C169.208 95.2532 171.981 88.2482 177.002 82.9953C188.896 70.8904 188.724 51.4355 176.619 39.5423C170.559 33.5878 162.304 30.4081 153.815 30.7592C137.643 31.6126 124.833 44.7312 124.363 60.9186ZM154.76 94.5765L150.765 68.5765H159.417L155.422 94.5765H154.76ZM164.687 99.3039C164.687 100.367 164.546 101.431 164.546 102.519V104.031H145.636V103.369C145.629 102.011 145.55 100.654 145.4 99.3039H164.687ZM157.454 113.485H152.727C149.729 113.477 147.061 111.584 146.062 108.758H164.12C163.121 111.584 160.452 113.477 157.454 113.485ZM154.004 35.4854H155.091C169.45 35.4928 181.085 47.1391 181.078 61.4985C181.074 68.2996 178.406 74.8283 173.645 79.6854C169.612 83.8029 166.797 88.9566 165.514 94.5765H160.22L164.214 68.5765H166.909C168.214 68.5765 169.272 67.5181 169.272 66.2128C169.272 64.9075 168.214 63.8491 166.909 63.8491H143.273C141.968 63.8491 140.909 64.9075 140.909 66.2128C140.909 67.5181 141.968 68.5765 143.273 68.5765H145.967L149.962 94.5765H144.573C143.254 88.9363 140.445 83.753 136.442 79.5676C131.596 74.6228 128.946 67.9349 129.091 61.0131C129.478 47.3135 140.318 36.2063 154.004 35.4854Z" fill="black"/>
<path d="M157.454 23.2129V16.5766C157.454 15.2713 156.396 14.2129 155.091 14.2129C153.785 14.2129 152.727 15.2713 152.727 16.5766V23.2129C152.727 24.5182 153.785 25.5766 155.091 25.5766C156.396 25.576 157.454 24.5182 157.454 23.2129Z" fill="black"/>
<path d="M192.545 25.4017L183.091 34.8565C182.164 35.7756 182.158 37.2723 183.077 38.1993C183.082 38.2038 183.086 38.2084 183.091 38.2129C184.01 39.1399 185.507 39.1461 186.434 38.2265C186.438 38.222 186.443 38.2174 186.447 38.2129L195.902 28.7581C196.829 27.8311 196.829 26.3288 195.902 25.4017C194.975 24.4747 193.472 24.4747 192.545 25.4017Z" fill="black"/>
<path d="M121.356 29.3565C120.429 28.4295 118.927 28.4295 118 29.3565C117.073 30.2835 117.073 31.7859 118 32.7129L123.318 37.7966C124.237 38.7236 125.734 38.7298 126.661 37.8102L126.675 37.7966C127.602 36.8775 127.608 35.3808 126.688 34.4538C126.684 34.4492 126.679 34.4447 126.675 34.4402L121.356 29.3565Z" fill="black"/>
<path d="M188.181 66.2129C188.181 67.5182 189.24 68.5766 190.545 68.5766H200C201.305 68.5766 202.364 67.5182 202.364 66.2129C202.364 64.9076 201.305 63.8492 200 63.8492H190.545C189.24 63.8492 188.181 64.9076 188.181 66.2129Z" fill="black"/>
<path d="M106 66.2129C106 67.5182 107.058 68.5766 108.364 68.5766H116.318C117.624 68.5766 118.682 67.5182 118.682 66.2129C118.682 64.9076 117.624 63.8492 116.318 63.8492H108.364C107.058 63.8492 106 64.9076 106 66.2129Z" fill="black"/>
<path d="M124.363 60.9186C124.213 69.0669 127.338 76.9343 133.038 82.7586C138.267 88.3281 141.095 95.7317 140.909 103.37V106.396C140.909 112.923 146.2 118.214 152.727 118.214H157.454C163.982 118.214 169.273 112.923 169.273 106.396V102.519C169.208 95.2532 171.981 88.2482 177.002 82.9953C188.896 70.8904 188.724 51.4355 176.619 39.5423C170.559 33.5878 162.304 30.4081 153.815 30.7592C137.643 31.6126 124.833 44.7312 124.363 60.9186ZM154.76 94.5765L150.765 68.5765H159.417L155.422 94.5765H154.76ZM164.687 99.3039C164.687 100.367 164.546 101.431 164.546 102.519V104.031H145.636V103.369C145.629 102.011 145.55 100.654 145.4 99.3039H164.687ZM157.454 113.485H152.727C149.729 113.477 147.061 111.584 146.062 108.758H164.12C163.121 111.584 160.452 113.477 157.454 113.485ZM154.004 35.4854H155.091C169.45 35.4928 181.085 47.1391 181.078 61.4985C181.074 68.2996 178.406 74.8283 173.645 79.6854C169.612 83.8029 166.797 88.9566 165.514 94.5765H160.22L164.214 68.5765H166.909C168.214 68.5765 169.272 67.5181 169.272 66.2128C169.272 64.9075 168.214 63.8491 166.909 63.8491H143.273C141.968 63.8491 140.909 64.9075 140.909 66.2128C140.909 67.5181 141.968 68.5765 143.273 68.5765H145.967L149.962 94.5765H144.573C143.254 88.9363 140.445 83.753 136.442 79.5676C131.596 74.6228 128.946 67.9349 129.091 61.0131C129.478 47.3135 140.318 36.2063 154.004 35.4854Z" stroke="black" stroke-width="1.5"/>
<path d="M157.454 23.2129V16.5766C157.454 15.2713 156.396 14.2129 155.091 14.2129C153.785 14.2129 152.727 15.2713 152.727 16.5766V23.2129C152.727 24.5182 153.785 25.5766 155.091 25.5766C156.396 25.576 157.454 24.5182 157.454 23.2129Z" stroke="black" stroke-width="1.5"/>
<path d="M192.545 25.4017L183.091 34.8565C182.164 35.7756 182.158 37.2723 183.077 38.1993C183.082 38.2038 183.086 38.2084 183.091 38.2129C184.01 39.1399 185.507 39.1461 186.434 38.2265C186.438 38.222 186.443 38.2174 186.447 38.2129L195.902 28.7581C196.829 27.8311 196.829 26.3288 195.902 25.4017C194.975 24.4747 193.472 24.4747 192.545 25.4017Z" stroke="black" stroke-width="1.5"/>
<path d="M121.356 29.3565C120.429 28.4295 118.927 28.4295 118 29.3565C117.073 30.2835 117.073 31.7859 118 32.7129L123.318 37.7966C124.237 38.7236 125.734 38.7298 126.661 37.8102L126.675 37.7966C127.602 36.8775 127.608 35.3808 126.688 34.4538C126.684 34.4492 126.679 34.4447 126.675 34.4402L121.356 29.3565Z" stroke="black" stroke-width="1.5"/>
<path d="M188.181 66.2129C188.181 67.5182 189.24 68.5766 190.545 68.5766H200C201.305 68.5766 202.364 67.5182 202.364 66.2129C202.364 64.9076 201.305 63.8492 200 63.8492H190.545C189.24 63.8492 188.181 64.9076 188.181 66.2129Z" stroke="black" stroke-width="1.5"/>
<path d="M106 66.2129C106 67.5182 107.058 68.5766 108.364 68.5766H116.318C117.624 68.5766 118.682 67.5182 118.682 66.2129C118.682 64.9076 117.624 63.8492 116.318 63.8492H108.364C107.058 63.8492 106 64.9076 106 66.2129Z" stroke="black" stroke-width="1.5"/>
</g>
</g>
</svg>
