<svg width="206" height="160" viewBox="0 0 206 160" fill="none" xmlns="http://www.w3.org/2000/svg">
<mask id="mask0_121_984" style="mask-type:alpha" maskUnits="userSpaceOnUse" x="0" y="0" width="184" height="160">
<rect y="0.212891" width="184" height="159" rx="12" fill="white"/>
</mask>
<g mask="url(#mask0_121_984)">
<g opacity="0.04">
<path d="M132 101.119V32.2129H230V101.119H189.613V112.604H201.098V118.346H160.902V112.604H172.387V101.119H132ZM224.258 37.9551H137.742V95.377H224.258V37.9551ZM178.129 112.604H183.871V101.119H178.129V112.604Z" fill="black"/>
<path d="M166.645 43.6973H169.516C177.701 43.6973 181.932 47.0823 185.665 50.0686C189.094 52.8122 192.056 55.1816 198.227 55.1816H212.582V72.4082H206.038L200.95 87.6715L195.503 85.8558L199.985 72.4082H198.227C192.056 72.4082 189.094 74.7776 185.665 77.5212C181.932 80.5076 177.701 83.8926 169.516 83.8926H166.645V66.666H160.902V60.9238H166.645V43.6973ZM206.84 60.9238H201.098V66.666H206.84V60.9238ZM172.387 77.9571C176.7 77.339 179.228 75.3172 182.077 73.0374C185.347 70.4216 188.999 67.5004 195.355 66.8155V60.7743C188.999 60.0895 185.347 57.1682 182.077 54.5525C179.228 52.2726 176.7 50.251 172.387 49.6328V77.9571Z" fill="black"/>
<path d="M156.594 51.3617L159.469 56.3322C156.811 57.8696 155.16 60.7292 155.16 63.7949C155.16 66.8607 156.811 69.7203 159.469 71.2577L156.594 76.2281C152.168 73.6677 149.418 68.9036 149.418 63.7949C149.418 58.6863 152.168 53.9222 156.594 51.3617Z" fill="black"/>
<path d="M132 101.119V32.2129H230V101.119H189.613V112.604H201.098V118.346H160.902V112.604H172.387V101.119H132ZM224.258 37.9551H137.742V95.377H224.258V37.9551ZM178.129 112.604H183.871V101.119H178.129V112.604Z" stroke="black" stroke-width="0.5"/>
<path d="M166.645 43.6973H169.516C177.701 43.6973 181.932 47.0823 185.665 50.0686C189.094 52.8122 192.056 55.1816 198.227 55.1816H212.582V72.4082H206.038L200.95 87.6715L195.503 85.8558L199.985 72.4082H198.227C192.056 72.4082 189.094 74.7776 185.665 77.5212C181.932 80.5076 177.701 83.8926 169.516 83.8926H166.645V66.666H160.902V60.9238H166.645V43.6973ZM206.84 60.9238H201.098V66.666H206.84V60.9238ZM172.387 77.9571C176.7 77.339 179.228 75.3172 182.077 73.0374C185.347 70.4216 188.999 67.5004 195.355 66.8155V60.7743C188.999 60.0895 185.347 57.1682 182.077 54.5525C179.228 52.2726 176.7 50.251 172.387 49.6328V77.9571Z" stroke="black" stroke-width="0.5"/>
<path d="M156.594 51.3617L159.469 56.3322C156.811 57.8696 155.16 60.7292 155.16 63.7949C155.16 66.8607 156.811 69.7203 159.469 71.2577L156.594 76.2281C152.168 73.6677 149.418 68.9036 149.418 63.7949C149.418 58.6863 152.168 53.9222 156.594 51.3617Z" stroke="black" stroke-width="0.5"/>
</g>
<path opacity="0.04" d="M109.111 65.7433L113.887 60.9436L113.887 77.8901C113.887 79.057 114.833 80.003 116 80.003C117.167 80.003 118.113 79.057 118.113 77.8901L118.113 60.9437L122.889 65.7434L122.89 65.7435C123.713 66.5706 125.05 66.5737 125.878 65.7505C126.705 64.9273 126.708 63.5895 125.885 62.7624L125.885 62.7624L117.498 54.3347L117.492 54.3295L117.49 54.3275C116.668 53.5094 115.335 53.5067 114.51 54.3274L114.508 54.3295L114.502 54.3346L106.115 62.7623L106.47 63.115L106.115 62.7623C105.292 63.5892 105.295 64.9271 106.123 65.7504C106.95 66.5736 108.287 66.5704 109.111 65.7433L109.111 65.7433Z" fill="black" stroke="black"/>
</g>
</svg>
